<?xml version="1.0" encoding="utf-8"?><svg xmlns="http://www.w3.org/2000/svg" xmlns:xlink="http://www.w3.org/1999/xlink"><symbol class="aicon aicon-tabler aicon-tabler-sailboat" viewBox="0 0 24 24" stroke-width="1.5" stroke="#FF5722" fill="none" stroke-linecap="round" stroke-linejoin="round" id="icon-boat" xmlns="http://www.w3.org/2000/svg"><path stroke="none" d="M0 0h24v24H0z" fill="none"/><path d="M2 20a2.4 2.4 0 0 0 2 1a2.4 2.4 0 0 0 2 -1a2.4 2.4 0 0 1 2 -1a2.4 2.4 0 0 1 2 1a2.4 2.4 0 0 0 2 1a2.4 2.4 0 0 0 2 -1a2.4 2.4 0 0 1 2 -1a2.4 2.4 0 0 1 2 1a2.4 2.4 0 0 0 2 1a2.4 2.4 0 0 0 2 -1"/><path d="M4 18l-1 -3h18l-1 3"/><path d="M11 12h7l-7 -9v9"/><line x1="8" y1="7" x2="6" y2="12"/></symbol><symbol viewBox="0 0 24 24" stroke-width="1.5" stroke="#FF5722" fill="none" stroke-linecap="round" stroke-linejoin="round" id="icon-bolt" xmlns="http://www.w3.org/2000/svg"><path stroke="none" d="M0 0h24v24H0z" fill="none"/><polyline points="13 3 13 10 19 10 11 21 11 14 5 14 13 3"/></symbol><symbol class="cicon cicon-tabler cicon-tabler-map-pin" viewBox="0 0 24 24" stroke-width="1.5" stroke="#FF5722" fill="none" stroke-linecap="round" stroke-linejoin="round" id="icon-prin" xmlns="http://www.w3.org/2000/svg"><path stroke="none" d="M0 0h24v24H0z" fill="none"/><circle cx="12" cy="11" r="3"/><path d="M17.657 16.657l-4.243 4.243a2 2 0 0 1 -2.827 0l-4.244 -4.243a8 8 0 1 1 11.314 0z"/></symbol><symbol class="dicon dicon-tabler dicon-tabler-wallet" viewBox="0 0 24 24" stroke-width="1.5" stroke="#FF5722" fill="none" stroke-linecap="round" stroke-linejoin="round" id="icon-wallet" xmlns="http://www.w3.org/2000/svg"><path stroke="none" d="M0 0h24v24H0z" fill="none"/><path d="M17 8v-3a1 1 0 0 0 -1 -1h-10a2 2 0 0 0 0 4h12a1 1 0 0 1 1 1v3m0 4v3a1 1 0 0 1 -1 1h-12a2 2 0 0 1 -2 -2v-12"/><path d="M20 12v4h-4a2 2 0 0 1 0 -4h4"/></symbol></svg>